<?xml version="1.0" encoding="UTF-8"?>
<!DOCTYPE svg PUBLIC "-//W3C//DTD SVG 1.1//EN" "http://www.w3.org/Graphics/SVG/1.1/DTD/svg11.dtd">
<!-- Creator: CorelDRAW -->
<svg xmlns="http://www.w3.org/2000/svg" xml:space="preserve" width="384px" height="576px" style="shape-rendering:geometricPrecision; text-rendering:geometricPrecision; image-rendering:optimizeQuality; fill-rule:evenodd; clip-rule:evenodd"
viewBox="0 0 384 663.479"
 xmlns:xlink="http://www.w3.org/1999/xlink">
 <defs>
  <style type="text/css">
   <![CDATA[
    .str2 {stroke:#1F1A17;stroke-width:0.327195}
    .str0 {stroke:#1F1A17;stroke-width:1.07347}
    .str1 {stroke:white;stroke-width:2.14695;stroke-dasharray:2.146950 6.440849}
    .fil0 {fill:none}
    .fil4 {fill:#1F1A17}
    .fil3 {fill:#616F85}
    .fil7 {fill:#BF815E}
    .fil6 {fill:#C78057}
    .fil8 {fill:#F8C300}
    .fil5 {fill:#B15C2A}
    .fil2 {fill:#1F1A17;fill-rule:nonzero}
    .fil1 {fill:url(#id0)}
   ]]>
  </style>
  <radialGradient id="id0" gradientUnits="userSpaceOnUse" cx="175.496" cy="318.741" r="4.76752" fx="175.496" fy="318.741">
   <stop offset="0" style="stop-color:#F1FCFF"/>
   <stop offset="1" style="stop-color:#1DAFD3"/>
  </radialGradient>
 </defs>
 <g id="Слой_x0020_1">
  <metadata id="CorelCorpID_0Corel-Layer"/>
  <rect class="fil0 str0" x="0.553889" y="4.62754" width="344.226" height="623.164"/>
  <rect class="fil0 str0" x="14.1866" y="17.6909" width="321.528" height="602.158"/>
  <rect class="fil1 str0" x="35.7849" y="39.2784" width="279.435" height="558.972"/>
  <polyline class="fil0 str1" points="35.7849,598.25 175.496,39.2784 315.219,598.25 "/>
  <g>
   <path class="fil2" d="M1.95244 658.234l10.6897 -4.57773 0 0 -0.138693 0.285974 -0.130105 0.286403 -0.120659 0.286403 -0.112071 0.286403 -0.102624 0.285974 -0.0940364 0.286403 -0.0850192 0.286403 -0.0764314 0.285974 -0.0669848 0.286403 -0.058397 0.286403 -0.0493798 0.285974 -0.0403627 0.286403 -0.0313455 0.286403 -0.0223283 0.286403 -0.0133111 0.285974 -0.00472329 0.286403 0.0042939 0.286403 0.0133111 0.286403 0.0223283 0.285974 0.0313455 0.286403 0.0403627 0.286403 0.0489505 0.286403 0.0579676 0.286403 0.0669848 0.285974 0.076002 0.286403 0.0850192 0.286403 0.0940364 0.286403 0.102624 0.286403 0.111641 0.285974 0.120659 0.286403 0.129676 0.286403 0.138693 0.286403 -10.6871 -4.58374zm336.733 0.477482l-331.361 -0.0914601 0 -0.769467 331.361 0.0914601 0 0.769467zm5.37167 -0.383445l-10.6897 4.57773 0.138693 -0.285974 0.130105 -0.286403 0.120659 -0.286403 0.112071 -0.286403 0.102624 -0.285974 0.0940364 -0.286403 0.0850192 -0.286403 0.0764314 -0.285974 0.0669848 -0.286403 0.058397 -0.286403 0.0493798 -0.285974 0.0403627 -0.286403 0.0313455 -0.286403 0.0223283 -0.286403 0.0133111 -0.285974 0.00472329 -0.286403 -0.0042939 -0.286403 -0.0133111 -0.286403 -0.0223283 -0.285974 -0.0313455 -0.286403 -0.0403627 -0.286403 -0.0489505 -0.286403 -0.0579676 -0.286403 -0.0669848 -0.285974 -0.076002 -0.286403 -0.0850192 -0.286403 -0.0940364 -0.286403 -0.102624 -0.286403 -0.111641 -0.285974 -0.120659 -0.286403 -0.129676 -0.286403 -0.138693 -0.286403 0 0 10.6871 4.58374z"/>
  </g>
  <path class="fil2" d="M134.945 635.353l2.00783 0 0 13.3888 5.04361 0 0 -13.3888 2.00783 0 0 13.3888 5.04361 0 0 -13.3888 2.0074 0 0 15.1807 -16.1103 0 0 -15.1807zm19.168 4.18483l1.86269 0 0 8.38727 5.16728 -8.38727 2.00783 0 0 10.9958 -1.86269 0 0 -8.33446 -5.16771 8.33446 -2.0074 0 0 -10.9958zm11.8477 15.209l0 -15.209 1.69652 0 0 1.42772c0.399333,-0.558207 0.85191,-0.979009 1.3573,-1.25811 0.501957,-0.279103 1.11341,-0.420802 1.83092,-0.420802 0.939935,0 1.76694,0.243893 2.48445,0.72481 0.721375,0.484352 1.26198,1.16622 1.6261,2.04647 0.367558,0.880249 0.551337,1.84509 0.551337,2.89452 0,1.12414 -0.201384,2.13879 -0.608016,3.04008 -0.402768,0.90129 -0.989744,1.59046 -1.76007,2.07095 -0.770755,0.477052 -1.58016,0.717511 -2.4282,0.717511 -0.622186,0 -1.17696,-0.130535 -1.67204,-0.392033 -0.494657,-0.261928 -0.897425,-0.593846 -1.2156,-0.993608l0 5.35149 -1.86269 0zm1.68578 -9.64925c0,1.41398 0.286403,2.45998 0.85878,3.13884 0.572806,0.675001 1.26885,1.01422 2.08211,1.01422 0.827005,0 1.53722,-0.349953 2.12763,-1.05329 0.590411,-0.699906 0.88712,-1.78497 0.88712,-3.25521 0,-1.40325 -0.289838,-2.44967 -0.86608,-3.14915 -0.575812,-0.696471 -1.26498,-1.04642 -2.06408,-1.04642 -0.79523,0 -1.49857,0.370993 -2.11002,1.11341 -0.611451,0.742415 -0.915459,1.82362 -0.915459,3.2376zm10.1091 -5.55974l1.86269 0 0 8.38727 5.16728 -8.38727 2.00783 0 0 10.9958 -1.86269 0 0 -8.33446 -5.16771 8.33446 -2.0074 0 0 -10.9958zm11.8546 0l1.86613 0 0 4.5773 5.16771 0 0 -4.5773 1.86269 0 0 10.9958 -1.86269 0 0 -4.87744 -5.16771 0 0 4.87744 -1.86613 0 0 -10.9958zm18.8781 9.63852c-0.693035,0.586976 -1.3573,1.00048 -1.99366,1.24437 -0.639791,0.240029 -1.32553,0.360258 -2.05721,0.360258 -1.20873,0 -2.13493,-0.293273 -2.78502,-0.883685 -0.646661,-0.589982 -0.972139,-1.34657 -0.972139,-2.26203 0,-0.540602 0.120229,-1.03182 0.367558,-1.47753 0.243893,-0.445277 0.565507,-0.8021 0.961404,-1.0709 0.399333,-0.268369 0.845039,-0.473617 1.34313,-0.611451 0.364123,-0.0953246 0.915459,-0.190649 1.65444,-0.279103 1.50544,-0.180344 2.61541,-0.392462 3.32563,-0.643226 0.00729963,-0.254628 0.0107347,-0.417367 0.0107347,-0.484352 0,-0.76002 -0.176479,-1.29719 -0.530297,-1.60463 -0.473617,-0.424237 -1.18383,-0.632491 -2.12033,-0.632491 -0.876814,0 -1.52348,0.151575 -1.94428,0.459447 -0.416938,0.307443 -0.724381,0.85148 -0.925765,1.63297l-1.82061 -0.251193c0.166174,-0.777625 0.438407,-1.41012 0.8167,-1.88717 0.378293,-0.480917 0.929629,-0.85191 1.64714,-1.10997 0.717511,-0.258063 1.54795,-0.389027 2.49519,-0.389027 0.940364,0 1.69995,0.113359 2.28693,0.332348 0.586547,0.222853 1.01808,0.498522 1.29719,0.834305 0.275668,0.335783 0.466317,0.756156 0.579676,1.26885 0.0601146,0.318178 0.0918894,0.890555 0.0918894,1.71756l0 2.48488c0,1.73559 0.0386451,2.8314 0.120229,3.28698 0.0777196,0.459877 0.236594,0.90129 0.469753,1.32209l-1.94728 0c-0.191079,-0.385163 -0.318178,-0.83774 -0.370993,-1.3573zm-0.155869 -4.16379c-0.678436,0.279533 -1.69266,0.512692 -3.04309,0.707205 -0.76689,0.109494 -1.31136,0.233159 -1.62567,0.370993 -0.318178,0.137834 -0.565507,0.339218 -0.735545,0.608016 -0.173044,0.264934 -0.261498,0.558207 -0.261498,0.883685 0,0.498092 0.191079,0.911595 0.565507,1.24394 0.374857,0.328913 0.926194,0.495087 1.65057,0.495087 0.717511,0 1.3573,-0.155869 1.91594,-0.470182 0.558636,-0.314743 0.972139,-0.74585 1.23364,-1.29032 0.201384,-0.420373 0.300144,-1.04256 0.300144,-1.86269l0 -0.685736z"/>
  <g>
   <path class="fil2" d="M378.756 622.97l-4.58073 -10.6884 0 0 0.286403 0.138693 0.285974 0.129676 0.286403 0.120659 0.286403 0.112071 0.286403 0.102624 0.285974 0.0940364 0.286403 0.0850192 0.286403 0.076002 0.286403 0.0674142 0.285974 0.0579676 0.286403 0.0493798 0.286403 0.0399333 0.286403 0.0313455 0.285974 0.0223283 0.286403 0.0137405 0.286403 0.0042939 0.286403 -0.0042939 0.285974 -0.0137405 0.286403 -0.0223283 0.286403 -0.0313455 0.286403 -0.0399333 0.285974 -0.0493798 0.286403 -0.0579676 0.286403 -0.0674142 0.286403 -0.076002 0.285974 -0.0850192 0.286403 -0.0940364 0.286403 -0.102624 0.286403 -0.112071 0.285974 -0.120659 0.286403 -0.129676 0.286403 -0.138693 -4.58073 10.6884zm0.386451 -615.739l0 610.367 -0.772902 0 0 -610.367 0.772902 0zm-0.386451 -5.37167l4.58073 10.6884 -0.286403 -0.138693 -0.286403 -0.129676 -0.285974 -0.120659 -0.286403 -0.112071 -0.286403 -0.102624 -0.286403 -0.0940364 -0.285974 -0.0850192 -0.286403 -0.076002 -0.286403 -0.0674142 -0.286403 -0.0579676 -0.285974 -0.0493798 -0.286403 -0.0399333 -0.286403 -0.0313455 -0.286403 -0.0223283 -0.285974 -0.0137405 -0.286403 -0.0042939 -0.286403 0.0042939 -0.286403 0.0137405 -0.285974 0.0223283 -0.286403 0.0313455 -0.286403 0.0399333 -0.286403 0.0493798 -0.285974 0.0579676 -0.286403 0.0674142 -0.286403 0.076002 -0.286403 0.0850192 -0.285974 0.0940364 -0.286403 0.102624 -0.286403 0.112071 -0.286403 0.120659 -0.285974 0.129676 -0.286403 0.138693 0 0 4.58073 -10.6884z"/>
  </g>
  <path class="fil2" d="M375.704 344.494l-15.1807 0 0 -5.69758c0,-1.15935 0.155439,-2.08898 0.459447,-2.78846 0.307443,-0.70377 0.78106,-1.25124 1.42085,-1.64714 0.636356,-0.395898 1.30406,-0.597281 2.00396,-0.597281 0.646661,0 1.25854,0.176479 1.83092,0.529867 0.572806,0.349953 1.03569,0.883685 1.38908,1.59432 0.268798,-0.919324 0.728245,-1.62266 1.37491,-2.11732 0.650526,-0.494657 1.41742,-0.742415 2.3011,-0.742415 0.710211,0 1.37147,0.152004 1.98292,0.452577 0.611451,0.300573 1.0812,0.671566 1.41355,1.11341 0.332348,0.441842 0.579676,0.996614 0.749285,1.66131 0.169609,0.664266 0.254628,1.48097 0.254628,2.44924l0 5.78946zm-8.80078 -2.01083l0 -3.28354c0,-0.887549 -0.0601146,-1.52691 -0.176909,-1.91594 -0.152004,-0.508827 -0.402768,-0.89399 -0.756585,-1.15205 -0.353388,-0.258063 -0.79523,-0.389027 -1.3251,-0.389027 -0.501957,0 -0.947234,0.120229 -1.32896,0.360688 -0.385592,0.243893 -0.647091,0.589982 -0.78836,1.03569 -0.141269,0.448713 -0.212119,1.21904 -0.212119,2.31141l0 3.03278 4.58803 0zm7.00893 0l0 -3.77863c0,-0.650096 -0.0249046,-1.10611 -0.0708493,-1.36761 -0.0850192,-0.463312 -0.222853,-0.848475 -0.416938,-1.15935 -0.191079,-0.311308 -0.473617,-0.565507 -0.841175,-0.76732 -0.371422,-0.197949 -0.79566,-0.300144 -1.27958,-0.300144 -0.565507,0 -1.05673,0.144704 -1.47753,0.434543 -0.416938,0.289838 -0.71064,0.693035 -0.880249,1.20873 -0.166174,0.512692 -0.250764,1.25511 -0.250764,2.21995l0 3.50983 5.21709 0zm-9.20397 -11.9821l0 -1.86269 8.38727 0 -8.38727 -5.16728 0 -2.00783 10.9958 0 0 1.86269 -8.33446 0 8.33446 5.16771 0 2.0074 -10.9958 0zm6.96642 -19.0228l0.240458 -1.83092c1.26155,0.197949 2.25129,0.71064 2.96537,1.53765 0.714075,0.82357 1.0709,1.83822 1.0709,3.03965 0,1.50244 -0.491222,2.7146 -1.47367,3.62663 -0.982874,0.915459 -2.39299,1.37491 -4.23078,1.37491 -1.18769,0 -2.22682,-0.197949 -3.1178,-0.590411 -0.890555,-0.395898 -1.55869,-0.993179 -2.00396,-1.79914 -0.445277,-0.8021 -0.668131,-1.67891 -0.668131,-2.62228 0,-1.19499 0.304008,-2.174 0.908589,-2.93016 0.604152,-0.76002 1.4595,-1.24781 2.5729,-1.46336l0.279533 1.81331c-0.73898,0.173044 -1.29375,0.477052 -1.66861,0.915459 -0.370993,0.437978 -0.558207,0.968274 -0.558207,1.59046 0,0.939935 0.335783,1.70339 1.01078,2.29037 0.671566,0.586547 1.73559,0.87982 3.19166,0.87982 1.47753,0 2.55186,-0.282539 3.22343,-0.85148 0.668131,-0.565507 1.00391,-1.30449 1.00391,-2.21651 0,-0.73168 -0.226289,-1.33927 -0.675001,-1.83092 -0.449142,-0.491222 -1.13831,-0.8021 -2.07138,-0.933064zm-1.47023 -2.96923c-2.03617,0 -3.54504,-0.565507 -4.52448,-1.69995 -0.812835,-0.943799 -1.2229,-2.09628 -1.2229,-3.45702 0,-1.51274 0.495087,-2.74981 1.48827,-3.70778 0.989744,-0.961404 2.35735,-1.43846 4.10368,-1.43846 1.41699,0 2.53039,0.212119 3.3398,0.636356 0.813265,0.424237 1.44232,1.04256 1.89103,1.85196 0.449142,0.812835 0.671566,1.69652 0.671566,2.65792 0,1.53765 -0.491222,2.78159 -1.48097,3.73269 -0.985879,0.950669 -2.40673,1.42429 -4.26599,1.42429zm0 -1.91594c1.41012,0 2.46341,-0.307443 3.16332,-0.92233 0.703341,-0.614886 1.05329,-1.38908 1.05329,-2.31871 0,-0.925765 -0.353388,-1.69652 -1.05673,-2.31141 -0.703341,-0.611451 -1.7781,-0.918894 -3.22,-0.918894 -1.36074,0 -2.39299,0.307443 -3.0929,0.925765 -0.699906,0.618751 -1.04943,1.38564 -1.04943,2.30454 0,0.929629 0.349523,1.70382 1.04599,2.31871 0.696471,0.614886 1.74976,0.92233 3.15645,0.92233zm-5.49619 -9.10135l0 -8.93861 1.54108 0 0 3.54161 9.45474 0 0 1.85539 -9.45474 0 0 3.54161 -1.54108 0zm9.63852 -17.6582c0.586976,0.693035 1.00048,1.3573 1.24437,1.99366 0.240029,0.639791 0.360258,1.32553 0.360258,2.05721 0,1.20873 -0.293273,2.13493 -0.883685,2.78502 -0.589982,0.646661 -1.34657,0.972139 -2.26203,0.972139 -0.540602,0 -1.03182,-0.120229 -1.47753,-0.367558 -0.445277,-0.243893 -0.8021,-0.565507 -1.0709,-0.961404 -0.268369,-0.399333 -0.473617,-0.845039 -0.611451,-1.34313 -0.0953246,-0.364123 -0.190649,-0.915459 -0.279103,-1.65444 -0.180344,-1.50544 -0.392462,-2.61541 -0.643226,-3.32563 -0.254628,-0.00729963 -0.417367,-0.0107347 -0.484352,-0.0107347 -0.76002,0 -1.29719,0.176479 -1.60463,0.530297 -0.424237,0.473617 -0.632491,1.18383 -0.632491,2.12033 0,0.876814 0.151575,1.52348 0.459447,1.94428 0.307443,0.416938 0.85148,0.724381 1.63297,0.925765l-0.251193 1.82061c-0.777625,-0.166174 -1.41012,-0.438407 -1.88717,-0.8167 -0.480917,-0.378293 -0.85191,-0.929629 -1.10997,-1.64714 -0.258063,-0.717511 -0.389027,-1.54795 -0.389027,-2.49519 0,-0.940364 0.113359,-1.69995 0.332348,-2.28693 0.222853,-0.586547 0.498522,-1.01808 0.834305,-1.29719 0.335783,-0.275668 0.756156,-0.466317 1.26885,-0.579676 0.318178,-0.0601146 0.890555,-0.0918894 1.71756,-0.0918894l2.48488 0c1.73559,0 2.8314,-0.0386451 3.28698,-0.120229 0.459877,-0.0777196 0.90129,-0.236594 1.32209,-0.469753l0 1.94728c-0.385163,0.191079 -0.83774,0.318178 -1.3573,0.370993zm-4.16379 0.155869c0.279533,0.678436 0.512692,1.69266 0.707205,3.04309 0.109494,0.76689 0.233159,1.31136 0.370993,1.62567 0.137834,0.318178 0.339218,0.565507 0.608016,0.735545 0.264934,0.173044 0.558207,0.261498 0.883685,0.261498 0.498092,0 0.911595,-0.191079 1.24394,-0.565507 0.328913,-0.374857 0.495087,-0.926194 0.495087,-1.65057 0,-0.717511 -0.155869,-1.3573 -0.470182,-1.91594 -0.314743,-0.558636 -0.74585,-0.972139 -1.29032,-1.23364 -0.420373,-0.201384 -1.04256,-0.300144 -1.86269,-0.300144l-0.685736 0z"/>
  <rect class="fil0 str0" x="18.6909" y="306.067" width="7.89906" height="27.3646"/>
  <rect class="fil0 str2" x="22.2437" y="315.095" width="4.34629" height="45.7957"/>
  <polygon class="fil3 str2" points="22.2437,333.432 26.59,333.432 26.59,315.095 22.2437,315.095 "/>
  <polygon class="fil4 str2" points="22.2437,333.432 26.59,333.432 26.59,315.095 22.2437,315.095 "/>
  <polygon class="fil4 str2" points="26.59,333.432 22.2437,333.432 22.2437,360.891 26.59,360.891 "/>
  <path class="fil5 str2" d="M315.219 39.2784l0 558.972 -279.435 0 0 -558.972 279.435 0zm-288.629 294.154l0 27.4586 -4.34629 0 0 -27.4586 -3.55277 0 0 -27.3646 7.89906 0 0 9.02749 0 18.3371zm309.124 -315.741l-321.528 0 0 602.158 321.528 0 0 -602.158z"/>
  <path class="fil6 str0" d="M315.219 39.2784l0 558.972 -279.435 0 0 -558.972 279.435 0zm-288.629 294.154l0 27.4586 -4.34629 0 0 -27.4586 -3.55277 0 0 -27.3646 7.89906 0 0 9.02749 0 18.3371zm309.124 -315.741l-321.528 0 0 602.158 321.528 0 0 -602.158z"/>
  <path class="fil6 str2" d="M335.714 17.6909l0 602.158 -321.528 0 0 -602.158 321.528 0zm9.06528 -13.0633l-344.226 0 0 623.164 344.226 0 0 -623.164z"/>
  <path class="fil7 str0" d="M14.1866 619.849l0 -602.158 321.528 0 0 602.158 -321.528 0zm330.593 -615.222l-344.226 0 0 623.164 344.226 0 0 -623.164z"/>
  <polygon class="fil8 str0" points="22.2437,315.095 26.59,315.095 26.59,306.067 18.6909,306.067 18.6909,333.432 22.2437,333.432 "/>
  <line class="fil0 str1" x1="0.553913" y1="4.62754" x2="35.7849" y2= "39.2784" />
  <line class="fil0 str1" x1="344.78" y1="4.62754" x2="332.27" y2= "17.6909" />
  <polyline class="fil0 str1" points="344.779,627.793 35.7841,318.741 335.713,17.6917 "/>
  <line class="fil0 str1" x1="35.7849" y1="598.25" x2="14.1866" y2= "619.849" />
  <line class="fil0 str1" x1="0.553913" y1="627.792" x2="14.1866" y2= "615.181" />
 </g>
</svg>
