<?xml version="1.0" encoding="UTF-8"?>
<!DOCTYPE svg PUBLIC "-//W3C//DTD SVG 1.1//EN" "http://www.w3.org/Graphics/SVG/1.1/DTD/svg11.dtd">
<!-- Creator: CorelDRAW -->
<svg xmlns="http://www.w3.org/2000/svg" xml:space="preserve" width="576px" height="576px" style="shape-rendering:geometricPrecision; text-rendering:geometricPrecision; image-rendering:optimizeQuality; fill-rule:evenodd; clip-rule:evenodd"
viewBox="0 0 576 616.088"
 xmlns:xlink="http://www.w3.org/1999/xlink">
 <defs>
  <style type="text/css">
   <![CDATA[
    .str4 {stroke:#1F1A17;stroke-width:0.303824}
    .str0 {stroke:#1F1A17;stroke-width:1.9936}
    .str2 {stroke:black;stroke-width:1.9936}
    .str1 {stroke:#1F1A17;stroke-width:1.9936}
    .str3 {stroke:white;stroke-width:1.9936;stroke-dasharray:1.993598 5.980795}
    .fil0 {fill:none}
    .fil4 {fill:black}
    .fil3 {fill:#BF815E}
    .fil6 {fill:#C78057}
    .fil5 {fill:#F8C300}
    .fil7 {fill:#1F1A17;fill-rule:nonzero}
    .fil2 {fill:url(#id0)}
    .fil1 {fill:url(#id1)}
   ]]>
  </style>
  <radialGradient id="id0" gradientUnits="userSpaceOnUse" cx="402.44" cy="293.293" r="2.49758" fx="402.44" fy="293.293">
   <stop offset="0" style="stop-color:#E1EDF1"/>
   <stop offset="0.901961" style="stop-color:#7FCEE2"/>
   <stop offset="1" style="stop-color:#1DAFD3"/>
  </radialGradient>
  <radialGradient id="id1" gradientUnits="userSpaceOnUse" cx="141.959" cy="293.295" r="2.49758" fx="141.959" fy="293.295">
   <stop offset="0" style="stop-color:#F1FCFF"/>
   <stop offset="0.239216" style="stop-color:#C6E2EB"/>
   <stop offset="1" style="stop-color:#1DAFD3"/>
  </radialGradient>
 </defs>
 <g id="Слой_x0020_1">
  <metadata id="CorelCorpID_0Corel-Layer"/>
  <rect class="fil0 str0" x="0.562992" y="4.76031" width="539.09" height="578.137"/>
  <rect class="fil0 str0" x="15.3308" y="17.4153" width="253.213" height="552.825"/>
  <rect class="fil0 str1" x="275.875" y="17.424" width="253.213" height="552.825"/>
  <line class="fil0 str2" x1="268.544" y1="25.7098" x2="275.875" y2= "25.7098" />
  <line class="fil0 str0" x1="268.544" y1="561.721" x2="275.875" y2= "561.721" />
  <rect class="fil1 str2" x="31.1691" y="34.2883" width="221.578" height="518.014"/>
  <rect class="fil2 str2" x="291.651" y="34.2867" width="221.578" height="518.014"/>
  <polyline class="fil0 str3" points="291.651,552.3 402.44,34.2867 512.499,552.3 "/>
  <rect class="fil0 str0" x="257.002" y="283.245" width="7.33485" height="25.41"/>
  <rect class="fil0 str0" x="257.002" y="291.279" width="3.92938" height="43.1359"/>
  <rect class="fil0 str0" x="279.569" y="283.228" width="7.33485" height="25.41"/>
  <rect class="fil0 str0" x="282.974" y="291.262" width="3.92938" height="43.1359"/>
  <polygon class="fil3 str4" points="282.974,334.397 286.904,334.397 286.904,308.638 282.974,308.638 "/>
  <polygon class="fil4 str4" points="282.974,334.397 286.904,334.397 286.904,308.638 282.974,308.638 "/>
  <polygon class="fil4 str4" points="282.974,308.638 286.904,308.638 286.904,291.262 282.974,291.262 "/>
  <polygon class="fil4 str4" points="260.931,308.655 260.931,291.279 257.002,291.279 257.002,308.655 "/>
  <polygon class="fil4 str4" points="260.931,308.655 257.002,308.655 257.002,334.415 260.931,334.415 "/>
  <polygon class="fil5 str4" points="279.569,283.228 279.569,308.638 282.974,308.638 282.974,291.262 286.904,291.262 286.904,283.228 "/>
  <polygon class="fil5 str4" points="264.336,308.655 264.336,283.245 257.002,283.245 257.002,291.279 260.931,291.279 260.931,308.655 "/>
  <line class="fil0 str3" x1="252.748" y1="34.2883" x2="268.544" y2= "17.4153" />
  <path class="fil6 str0" d="M275.875 25.7098l0 536.011 0 8.52782 253.213 0 0 -552.825 -253.213 0 0 8.28579zm126.566 8.57686l110.789 0 0 518.013 -0.730454 0 -220.848 0 0 -518.013 110.789 0zm-122.871 248.941l7.33485 0 0 8.0334 0 17.3766 0 25.7593 -3.92938 0 0 -25.7593 -3.40546 0 0 -25.41z"/>
  <path class="fil6 str0" d="M268.544 17.4153l-253.213 0 0 552.825 253.213 0 0 -8.51904 0 -536.011 0 -8.29457zm-237.375 16.873l221.578 0 0 518.014 -221.578 0 0 -518.014zm225.832 256.99l0 -8.0334 7.33485 0 0 25.41 -3.40546 0 0 25.7593 -3.92938 0 0 -25.7593 0 -17.3766z"/>
  <path class="fil3 str4" d="M15.3308 17.4153l253.213 0 0 8.29457 7.33046 0 0 -8.28579 253.213 0 0 552.825 -253.213 0 0 -8.52782 -7.33046 0 0 8.51904 -253.213 0 0 -552.825zm524.322 -12.655l-539.09 0 0 578.137 539.09 0 0 -578.137z"/>
  <polygon class="fil3 str0" points="268.544,25.7098 268.544,561.721 275.875,561.721 275.875,25.7098 "/>
  <polyline class="fil0 str3" points="539.653,4.76031 291.651,293.293 512.499,552.3 539.653,582.897 "/>
  <polyline class="fil0 str3" points="15.3308,17.4153 252.748,293.295 31.1707,552.304 15.3308,570.24 "/>
  <line class="fil0 str3" x1="275.875" y1="17.424" x2="291.651" y2= "34.2867" />
  <line class="fil0 str3" x1="252.748" y1="34.2883" x2="268.544" y2= "17.4153" />
  <line class="fil0 str3" x1="0.0749593" y1="583.45" x2="15.3308" y2= "564.764" />
  <line class="fil0 str3" x1="0.562992" y1="4.76031" x2="15.3308" y2= "21.4611" />
  <g>
   <path class="fil7" d="M0.377986 611.319l13.8994 -5.95687 0 0 -0.180221 0.372404 -0.168658 0.372005 -0.157096 0.372404 -0.145533 0.372404 -0.13397 0.372404 -0.122008 0.372005 -0.110445 0.372404 -0.0988825 0.372404 -0.0873196 0.372404 -0.0757567 0.372005 -0.0637951 0.372404 -0.052631 0.372404 -0.0406694 0.372404 -0.0291065 0.372005 -0.0171449 0.372404 -0.0059808 0.372404 0.0059808 0.372404 0.0171449 0.372005 0.0291065 0.372404 0.0406694 0.372404 0.052631 0.372404 0.0637951 0.372005 0.0757567 0.372404 0.0873196 0.372404 0.0988825 0.372404 0.110445 0.372005 0.122008 0.372404 0.13397 0.372404 0.145533 0.372404 0.157096 0.372005 0.168658 0.372404 0.180221 0.372404 -13.8994 -5.95687zm531.345 0.991217l-524.359 0.00159488 0 -1.98562 524.359 -0.00159488 0 1.98562zm6.98517 -0.992812l-13.8994 5.95687 0.180221 -0.372404 0.168658 -0.372005 0.157096 -0.372404 0.145533 -0.372404 0.13397 -0.372404 0.122008 -0.372005 0.110445 -0.372404 0.0988825 -0.372404 0.0873196 -0.372404 0.0757567 -0.372005 0.0637951 -0.372404 0.052631 -0.372404 0.0406694 -0.372404 0.0291065 -0.372005 0.0171449 -0.372404 0.0059808 -0.372404 -0.0059808 -0.372404 -0.0171449 -0.372005 -0.0291065 -0.372404 -0.0406694 -0.372404 -0.052631 -0.372404 -0.0637951 -0.372005 -0.0757567 -0.372404 -0.0873196 -0.372404 -0.0988825 -0.372404 -0.110445 -0.372005 -0.122008 -0.372404 -0.13397 -0.372404 -0.145533 -0.372404 -0.157096 -0.372005 -0.168658 -0.372404 -0.180221 -0.372404 0 0 13.8994 5.95687z"/>
  </g>
  <g>
   <path class="fil7" d="M571.326 1.16825l5.9808 13.9552 0 0 -0.3736 -0.181019 -0.373999 -0.169456 -0.3736 -0.157494 -0.373999 -0.14633 -0.3736 -0.134369 -0.373999 -0.122407 -0.3736 -0.110844 -0.373999 -0.0992812 -0.3736 -0.0877183 -0.373999 -0.0761555 -0.3736 -0.0641939 -0.373999 -0.052631 -0.3736 -0.0406694 -0.373999 -0.0291065 -0.3736 -0.0175437 -0.373999 -0.0059808 -0.373999 0.0059808 -0.3736 0.0175437 -0.373999 0.0291065 -0.3736 0.0406694 -0.373999 0.052631 -0.3736 0.0641939 -0.373999 0.0761555 -0.3736 0.0877183 -0.373999 0.0992812 -0.3736 0.110844 -0.373999 0.122407 -0.3736 0.134369 -0.373999 0.14633 -0.3736 0.157494 -0.373999 0.169456 -0.3736 0.181019 5.9808 -13.9552zm-0.996799 570.544l0 -563.53 1.9936 0 0 563.53 -1.9936 0zm0.996799 7.01348l-5.9808 -13.9552 0.3736 0.181019 0.373999 0.169456 0.3736 0.157494 0.373999 0.14633 0.3736 0.134369 0.373999 0.122407 0.3736 0.110844 0.373999 0.0992812 0.3736 0.0877183 0.373999 0.0761555 0.3736 0.0641939 0.373999 0.052631 0.3736 0.0406694 0.373999 0.0291065 0.3736 0.0175437 0.373999 0.0059808 0.373999 -0.0059808 0.3736 -0.0175437 0.373999 -0.0291065 0.3736 -0.0406694 0.373999 -0.052631 0.3736 -0.0641939 0.373999 -0.0761555 0.3736 -0.0877183 0.373999 -0.0992812 0.3736 -0.110844 0.373999 -0.122407 0.3736 -0.134369 0.373999 -0.14633 0.3736 -0.157494 0.373999 -0.169456 0.3736 -0.181019 0 0 -5.9808 13.9552z"/>
  </g>
  <path class="fil7" d="M230.151 590.163l1.86441 0 0 12.4325 4.68336 0 0 -12.4325 1.86441 0 0 12.4325 4.68336 0 0 -12.4325 1.86401 0 0 14.0963 -14.9596 0 0 -14.0963zm17.7988 3.88592l1.72965 0 0 7.78819 4.79819 -7.78819 1.86441 0 0 10.2104 -1.72965 0 0 -7.73915 -4.79859 7.73915 -1.86401 0 0 -10.2104zm11.0015 14.1227l0 -14.1227 1.57534 0 0 1.32574c0.370809,-0.518336 0.79106,-0.909081 1.26035,-1.16825 0.466103,-0.259168 1.03388,-0.390745 1.70014,-0.390745 0.872797,0 1.64073,0.226473 2.30699,0.673039 0.669849,0.449756 1.17184,1.08292 1.50995,1.9003 0.341304,0.817375 0.511956,1.7133 0.511956,2.68777 0,1.04385 -0.187,1.98602 -0.564587,2.82294 -0.373999,0.836913 -0.919049,1.47686 -1.63435,1.92302 -0.715702,0.442978 -1.46729,0.666261 -2.25476,0.666261 -0.577745,0 -1.09289,-0.121211 -1.55261,-0.364031 -0.459325,-0.243219 -0.833324,-0.551429 -1.12878,-0.922637l0 4.96924 -1.72965 0zm1.56537 -8.96003c0,1.31298 0.265946,2.28426 0.797439,2.91464 0.531892,0.626787 1.17822,0.941776 1.93339,0.941776 0.767934,0 1.42742,-0.324957 1.97566,-0.978059 0.54824,-0.649913 0.823755,-1.65748 0.823755,-3.02269 0,-1.30302 -0.269136,-2.2747 -0.804218,-2.92421 -0.534683,-0.646723 -1.17463,-0.97168 -1.91665,-0.97168 -0.738429,0 -1.39153,0.344494 -1.95931,1.03388 -0.567777,0.689386 -0.85007,1.69336 -0.85007,3.00635zm9.38706 -5.16262l1.72965 0 0 7.78819 4.79819 -7.78819 1.86441 0 0 10.2104 -1.72965 0 0 -7.73915 -4.79859 7.73915 -1.86401 0 0 -10.2104zm11.0079 0l1.73284 0 0 4.25035 4.79859 0 0 -4.25035 1.72965 0 0 10.2104 -1.72965 0 0 -4.52906 -4.79859 0 0 4.52906 -1.73284 0 0 -10.2104zm17.5297 8.95006c-0.643534,0.54505 -1.26035,0.929017 -1.85126,1.15549 -0.594092,0.222884 -1.23085,0.334526 -1.91027,0.334526 -1.1224,0 -1.98243,-0.272326 -2.5861,-0.820565 -0.600472,-0.547841 -0.902701,-1.25038 -0.902701,-2.10046 0,-0.501988 0.111642,-0.958123 0.341304,-1.37199 0.226473,-0.413472 0.525114,-0.744808 0.892733,-0.994407 0.370809,-0.2492 0.78468,-0.439788 1.2472,-0.567777 0.338114,-0.0885158 0.85007,-0.177032 1.53627,-0.259168 1.39791,-0.167462 2.4286,-0.36443 3.08808,-0.597282 0.00677823,-0.236441 0.00996799,-0.387556 0.00996799,-0.449756 0,-0.705734 -0.163874,-1.20453 -0.492419,-1.49002 -0.439788,-0.393935 -1.09927,-0.587314 -1.96888,-0.587314 -0.814186,0 -1.41466,0.140748 -1.8054,0.42663 -0.387157,0.285483 -0.67264,0.790661 -0.85964,1.51633l-1.69057 -0.233251c0.154305,-0.722081 0.407093,-1.3094 0.758365,-1.75237 0.351272,-0.446566 0.863228,-0.79106 1.52949,-1.03069 0.666261,-0.239631 1.43738,-0.36124 2.31696,-0.36124 0.873196,0 1.57853,0.105262 2.12358,0.308609 0.544651,0.206936 0.945364,0.462914 1.20453,0.774712 0.255978,0.311799 0.43301,0.702145 0.538272,1.17822 0.0558208,0.295451 0.085326,0.826945 0.085326,1.59488l0 2.30739c0,1.61162 0.0358848,2.62916 0.111642,3.0522 0.0721683,0.427029 0.219695,0.836913 0.436199,1.22766l-1.80819 0c-0.17743,-0.357652 -0.295451,-0.777902 -0.344494,-1.26035zm-0.144735 -3.86638c-0.629977,0.259567 -1.57175,0.476071 -2.82573,0.656691 -0.712113,0.101674 -1.21769,0.216505 -1.50955,0.344494 -0.295451,0.127989 -0.525114,0.314989 -0.683007,0.564587 -0.160684,0.24601 -0.24282,0.518336 -0.24282,0.820565 0,0.462515 0.17743,0.846482 0.525114,1.15509 0.348082,0.305419 0.860038,0.459724 1.53268,0.459724 0.666261,0 1.26035,-0.144735 1.77909,-0.436598 0.518734,-0.292262 0.902701,-0.692576 1.14552,-1.19815 0.187,-0.390347 0.278705,-0.968091 0.278705,-1.72965l0 -0.636755z"/>
  <path class="fil7" d="M567.545 321.83l-14.0963 0 0 -5.29061c0,-1.07654 0.144337,-1.93977 0.42663,-2.58929 0.285483,-0.653502 0.725271,-1.16187 1.31936,-1.52949 0.590903,-0.36762 1.21091,-0.554619 1.86082,-0.554619 0.600472,0 1.16865,0.163874 1.70014,0.49202 0.531892,0.324957 0.961712,0.820565 1.28986,1.48045 0.249599,-0.853659 0.676229,-1.50676 1.2767,-1.96609 0.60406,-0.459325 1.31617,-0.689386 2.13674,-0.689386 0.659482,0 1.27351,0.141147 1.84129,0.420251 0.567777,0.279104 1.00398,0.623598 1.31259,1.03388 0.308609,0.410283 0.538272,0.925428 0.695766,1.54265 0.157494,0.616819 0.236441,1.37518 0.236441,2.2743l0 5.37594zm-8.17216 -1.8672l0 -3.04901c0,-0.824154 -0.0558208,-1.41785 -0.164273,-1.77909 -0.141147,-0.472483 -0.373999,-0.830134 -0.702544,-1.06976 -0.328146,-0.239631 -0.738429,-0.36124 -1.23045,-0.36124 -0.466103,0 -0.879576,0.111642 -1.23404,0.334925 -0.35805,0.226473 -0.600871,0.547841 -0.732049,0.961712 -0.131179,0.416662 -0.196968,1.13197 -0.196968,2.14631l0 2.81616 4.26032 0zm6.5083 0l0 -3.50873c0,-0.603662 -0.0231257,-1.0271 -0.0657887,-1.26992 -0.0789465,-0.430219 -0.206936,-0.78787 -0.387157,-1.07654 -0.17743,-0.289072 -0.439788,-0.525114 -0.781092,-0.712512 -0.344893,-0.18381 -0.738828,-0.278705 -1.18818,-0.278705 -0.525114,0 -0.981249,0.134369 -1.37199,0.403504 -0.387157,0.269136 -0.659881,0.643534 -0.817375,1.1224 -0.154305,0.476071 -0.232852,1.16546 -0.232852,2.06138l0 3.25913 4.84444 0zm-8.54656 -11.1263l0 -1.72965 7.78819 0 -7.78819 -4.79819 0 -1.86441 10.2104 0 0 1.72965 -7.73915 0 7.73915 4.79859 0 1.86401 -10.2104 0zm6.46883 -17.6641l0.223283 -1.70014c1.17144,0.18381 2.09049,0.659881 2.75356,1.42782 0.663071,0.764744 0.994407,1.70692 0.994407,2.82254 0,1.39512 -0.456135,2.52071 -1.36841,3.36759 -0.912669,0.85007 -2.22206,1.2767 -3.92858,1.2767 -1.10286,0 -2.06776,-0.18381 -2.8951,-0.54824 -0.826945,-0.36762 -1.44735,-0.922239 -1.86082,-1.67064 -0.413472,-0.744808 -0.620408,-1.55899 -0.620408,-2.43498 0,-1.10964 0.282294,-2.01872 0.843691,-2.72086 0.560999,-0.705734 1.35525,-1.15868 2.38913,-1.35884l0.259567 1.68379c-0.686197,0.160684 -1.20134,0.442978 -1.54942,0.85007 -0.344494,0.406694 -0.518336,0.899113 -0.518336,1.47686 0,0.872797 0.311799,1.58172 0.938586,2.12677 0.623598,0.544651 1.61162,0.816977 2.96368,0.816977 1.37199,0 2.36959,-0.262358 2.99319,-0.790661 0.620408,-0.525114 0.932207,-1.21131 0.932207,-2.05819 0,-0.679418 -0.210125,-1.24361 -0.626787,-1.70014 -0.417061,-0.456135 -1.05701,-0.744808 -1.92342,-0.866418zm-1.36522 -2.75715c-1.89073,0 -3.29183,-0.525114 -4.20131,-1.57853 -0.754776,-0.876386 -1.13555,-1.94655 -1.13555,-3.21009 0,-1.40469 0.459724,-2.5534 1.38196,-3.44294 0.919049,-0.892733 2.18897,-1.33571 3.81056,-1.33571 1.31577,0 2.34965,0.196968 3.10124,0.590903 0.755175,0.393935 1.3393,0.968091 1.75596,1.71968 0.417061,0.754776 0.623598,1.57534 0.623598,2.46807 0,1.42782 -0.456135,2.58291 -1.37518,3.46607 -0.91546,0.882765 -2.23482,1.32255 -3.96128,1.32255zm0 -1.77909c1.3094,0 2.28745,-0.285483 2.93737,-0.85645 0.653103,-0.570967 0.978059,-1.28986 0.978059,-2.15309 0,-0.85964 -0.328146,-1.57534 -0.981249,-2.14631 -0.653103,-0.567777 -1.6511,-0.85326 -2.99,-0.85326 -1.26354,0 -2.22206,0.285483 -2.87198,0.85964 -0.649913,0.574555 -0.974471,1.28667 -0.974471,2.13993 0,0.863228 0.324558,1.58212 0.971281,2.15309 0.646723,0.570967 1.62478,0.85645 2.93099,0.85645zm-5.10361 -8.45126l0 -8.30015 1.431 0 0 3.28864 8.77941 0 0 1.72287 -8.77941 0 0 3.28864 -1.431 0zm8.95006 -16.3969c0.54505,0.643534 0.929017,1.26035 1.15549,1.85126 0.222884,0.594092 0.334526,1.23085 0.334526,1.91027 0,1.1224 -0.272326,1.98243 -0.820565,2.5861 -0.547841,0.600472 -1.25038,0.902701 -2.10046,0.902701 -0.501988,0 -0.958123,-0.111642 -1.37199,-0.341304 -0.413472,-0.226473 -0.744808,-0.525114 -0.994407,-0.892733 -0.2492,-0.370809 -0.439788,-0.78468 -0.567777,-1.2472 -0.0885158,-0.338114 -0.177032,-0.85007 -0.259168,-1.53627 -0.167462,-1.39791 -0.36443,-2.4286 -0.597282,-3.08808 -0.236441,-0.00677823 -0.387556,-0.00996799 -0.449756,-0.00996799 -0.705734,0 -1.20453,0.163874 -1.49002,0.492419 -0.393935,0.439788 -0.587314,1.09927 -0.587314,1.96888 0,0.814186 0.140748,1.41466 0.42663,1.8054 0.285483,0.387157 0.790661,0.67264 1.51633,0.85964l-0.233251 1.69057c-0.722081,-0.154305 -1.3094,-0.407093 -1.75237,-0.758365 -0.446566,-0.351272 -0.79106,-0.863228 -1.03069,-1.52949 -0.239631,-0.666261 -0.36124,-1.43738 -0.36124,-2.31696 0,-0.873196 0.105262,-1.57853 0.308609,-2.12358 0.206936,-0.544651 0.462914,-0.945364 0.774712,-1.20453 0.311799,-0.255978 0.702145,-0.43301 1.17822,-0.538272 0.295451,-0.0558208 0.826945,-0.085326 1.59488,-0.085326l2.30739 0c1.61162,0 2.62916,-0.0358848 3.0522,-0.111642 0.427029,-0.0721683 0.836913,-0.219695 1.22766,-0.436199l0 1.80819c-0.357652,0.17743 -0.777902,0.295451 -1.26035,0.344494zm-3.86638 0.144735c0.259567,0.629977 0.476071,1.57175 0.656691,2.82573 0.101674,0.712113 0.216505,1.21769 0.344494,1.50955 0.127989,0.295451 0.314989,0.525114 0.564587,0.683007 0.24601,0.160684 0.518336,0.24282 0.820565,0.24282 0.462515,0 0.846482,-0.17743 1.15509,-0.525114 0.305419,-0.348082 0.459724,-0.860038 0.459724,-1.53268 0,-0.666261 -0.144735,-1.26035 -0.436598,-1.77909 -0.292262,-0.518734 -0.692576,-0.902701 -1.19815,-1.14552 -0.390347,-0.187 -0.968091,-0.278705 -1.72965,-0.278705l-0.636755 0z"/>
  <line class="fil0 str3" x1="252.748" y1="552.302" x2="268.544" y2= "570.24" />
  <line class="fil0 str3" x1="291.651" y1="552.3" x2="275.875" y2= "570.249" />
 </g>
</svg>
