<?xml version="1.0" encoding="UTF-8"?>
<!DOCTYPE svg PUBLIC "-//W3C//DTD SVG 1.1//EN" "http://www.w3.org/Graphics/SVG/1.1/DTD/svg11.dtd">
<!-- Creator: CorelDRAW -->
<svg xmlns="http://www.w3.org/2000/svg" xml:space="preserve" width="768px" height="576px" style="shape-rendering:geometricPrecision; text-rendering:geometricPrecision; image-rendering:optimizeQuality; fill-rule:evenodd; clip-rule:evenodd"
viewBox="0 0 768 554.772"
 xmlns:xlink="http://www.w3.org/1999/xlink">
 <defs>
  <style type="text/css">
   <![CDATA[
    .str3 {stroke:#1F1A17;stroke-width:0.271725}
    .str2 {stroke:#1F1A17;stroke-width:1.24808}
    .str0 {stroke:#1F1A17;stroke-width:1.78297}
    .str1 {stroke:white;stroke-width:1.78297}
    .str4 {stroke:white;stroke-width:1.78297;stroke-dasharray:1.782972 5.348915}
    .fil1 {fill:none}
    .fil3 {fill:black}
    .fil4 {fill:#BF815E}
    .fil5 {fill:#C78057}
    .fil6 {fill:#F8C300}
    .fil7 {fill:#1F1A17;fill-rule:nonzero}
    .fil2 {fill:url(#id0)}
    .fil0 {fill:url(#id1)}
   ]]>
  </style>
  <radialGradient id="id0" gradientUnits="userSpaceOnUse" cx="129.535" cy="261.187" r="3.67292" fx="129.535" fy="261.187">
   <stop offset="0" style="stop-color:#F1FCFF"/>
   <stop offset="0.0117647" style="stop-color:#87D5E9"/>
   <stop offset="1" style="stop-color:#1DAFD3"/>
  </radialGradient>
  <radialGradient id="id1" gradientUnits="userSpaceOnUse" xlink:href="#id0" cx="368.234" cy="260.207" r="15.1481" fx="368.234" fy="260.207">
  </radialGradient>
 </defs>
 <g id="Слой_x0020_1">
  <metadata id="CorelCorpID_0Corel-Layer"/>
  <rect class="fil0 str0" x="2.60385" y="1.64782" width="731.259" height="517.117"/>
  <rect class="fil1 str0" x="16.7421" y="13.9346" width="225.551" height="493.563"/>
  <rect class="fil1 str0" x="493.234" y="13.9293" width="225.551" height="493.563"/>
  <rect class="fil2 str0" x="30.9463" y="30.0331" width="197.188" height="462.343"/>
  <rect class="fil2 str1" x="507.374" y="30.0267" width="197.188" height="462.343"/>
  <line class="fil1 str0" x1="242.293" y1="500.781" x2="493.234" y2= "500.781" />
  <line class="fil1 str0" x1="242.293" y1="19.0261" x2="493.234" y2= "19.0261" />
  <line class="fil1 str2" x1="485.179" y1="19.0261" x2="485.179" y2= "500.781" />
  <line class="fil1 str2" x1="250.96" y1="500.781" x2="250.96" y2= "19.0261" />
  <rect class="fil1 str0" x="496.909" y="251.638" width="6.76103" height="22.6494"/>
  <rect class="fil1 str0" x="500.432" y="259.073" width="3.23859" height="37.7555"/>
  <rect class="fil1 str0" x="232.267" y="251.607" width="6.76103" height="22.6494"/>
  <rect class="fil1 str0" x="232.267" y="259.043" width="3.23859" height="37.7555"/>
  <polygon class="fil3 str3" points="232.267,296.798 235.505,296.798 235.505,274.256 232.267,274.256 "/>
  <polygon class="fil3 str3" points="232.267,274.256 235.505,274.256 235.505,259.043 232.267,259.043 "/>
  <polygon class="fil3 str3" points="500.432,274.287 500.432,296.829 503.67,296.829 503.67,274.287 "/>
  <polygon class="fil3 str3" points="500.432,274.287 503.67,274.287 503.67,259.073 500.432,259.073 "/>
  <path class="fil4 str3" d="M485.179 500.781l-234.219 0 -8.66702 0 0 6.71574 -225.551 0 0 -493.563 225.551 0 0 5.09145 8.66702 0 234.219 0 8.05547 0 0 -5.0968 225.551 0 0 493.563 -225.551 0 0 -6.71039 -8.05547 0zm248.684 -499.134l-731.259 0 0 517.118 731.259 0 0 -517.118z"/>
  <polygon class="fil4 str3" points="485.179,19.0261 485.179,500.781 493.234,500.781 493.234,19.0261 "/>
  <polygon class="fil4 str3" points="250.96,500.781 250.96,19.0261 242.293,19.0261 242.293,500.781 "/>
  <path class="fil5 str0" d="M493.234 19.0261l0 481.755 0 6.71039 225.551 0 0 -493.563 -225.551 0 0 5.0968zm3.6747 232.611l6.76103 0 0 7.4357 0 15.2137 0 22.5418 -3.23859 0 0 -22.5418 -3.52244 0 0 -22.6494zm10.4646 240.733l0 -462.343 197.188 0 0 462.343 -197.188 0z"/>
  <path class="fil5 str0" d="M242.293 500.781l0 -481.755 0 -5.09145 -225.551 0 0 493.563 225.551 0 0 -6.71574zm-10.0264 -249.175l6.76103 0 0 22.6494 -3.52244 0 0 22.5418 -3.23859 0 0 -22.5418 0 -15.2137 0 -7.4357zm-4.13221 -221.574l0 462.343 -197.188 0 0 -462.343 197.188 0z"/>
  <polygon class="fil6 str3" points="232.267,259.043 235.505,259.043 235.505,274.256 239.028,274.256 239.028,251.607 232.267,251.607 "/>
  <polygon class="fil6 str3" points="496.909,251.638 496.909,274.287 500.432,274.287 500.432,259.073 503.67,259.073 503.67,251.638 "/>
  <g>
   <path class="fil7" d="M1.2413 550.7l12.4808 -5.34891 0 0 -0.161894 0.334129 -0.151553 0.334485 -0.140855 0.334129 -0.13087 0.334485 -0.120172 0.334129 -0.109474 0.334485 -0.0991332 0.334129 -0.088792 0.334485 -0.0784507 0.334129 -0.0681095 0.334485 -0.0574117 0.334129 -0.0470704 0.334485 -0.0363726 0.334129 -0.0260314 0.334485 -0.0156901 0.334129 -0.00534891 0.334485 0.00534891 0.334485 0.0156901 0.334129 0.0260314 0.334485 0.0363726 0.334129 0.0470704 0.334485 0.0574117 0.334129 0.0681095 0.334485 0.0784507 0.334129 0.088792 0.334485 0.0991332 0.334129 0.109474 0.334485 0.120172 0.334129 0.13087 0.334485 0.140855 0.334129 0.151553 0.334485 0.161894 0.334129 -12.4808 -5.34891zm726.2 0.891486l-719.928 0 0 -1.78297 719.928 0 0 1.78297zm6.27249 -0.891486l-12.4808 5.34891 0.161894 -0.334129 0.151553 -0.334485 0.140855 -0.334129 0.13087 -0.334485 0.120172 -0.334129 0.109474 -0.334485 0.0991332 -0.334129 0.088792 -0.334485 0.0784507 -0.334129 0.0681095 -0.334485 0.0574117 -0.334129 0.0470704 -0.334485 0.0363726 -0.334129 0.0260314 -0.334485 0.0156901 -0.334129 0.00534891 -0.334485 -0.00534891 -0.334485 -0.0156901 -0.334129 -0.0260314 -0.334485 -0.0363726 -0.334129 -0.0470704 -0.334485 -0.0574117 -0.334129 -0.0681095 -0.334485 -0.0784507 -0.334129 -0.088792 -0.334485 -0.0991332 -0.334129 -0.109474 -0.334485 -0.120172 -0.334129 -0.13087 -0.334485 -0.140855 -0.334129 -0.151553 -0.334485 -0.161894 -0.334129 0 0 12.4808 5.34891z"/>
  </g>
  <g>
   <path class="fil7" d="M763.885 1.95842l5.32752 12.4309 0 0 -0.333059 -0.161181 -0.333059 -0.150839 -0.332702 -0.140498 -0.333059 -0.130157 -0.333059 -0.119816 -0.333059 -0.109118 -0.332702 -0.0987766 -0.333059 -0.0884354 -0.333059 -0.0780942 -0.333059 -0.0677529 -0.332702 -0.0570551 -0.333059 -0.0470704 -0.333059 -0.0363726 -0.333059 -0.0260314 -0.332702 -0.0153336 -0.333059 -0.00534891 -0.333059 0.00534891 -0.333059 0.0153336 -0.332702 0.0260314 -0.333059 0.0363726 -0.333059 0.0470704 -0.333059 0.0570551 -0.333059 0.0677529 -0.332702 0.0780942 -0.333059 0.0884354 -0.333059 0.0987766 -0.333059 0.109118 -0.332702 0.119816 -0.333059 0.130157 -0.333059 0.140498 -0.333059 0.150839 -0.332702 0.161181 5.32752 -12.4309zm-0.891842 508.563l0.00392254 -502.315 1.77584 0 -0.00392254 502.315 -1.77584 0zm0.88792 6.24718l-5.32752 -12.4309 0.333059 0.161181 0.333059 0.150839 0.332702 0.140498 0.333059 0.130157 0.333059 0.119816 0.333059 0.109118 0.332702 0.0987766 0.333059 0.0884354 0.333059 0.0780942 0.333059 0.0677529 0.332702 0.0570551 0.333059 0.0470704 0.333059 0.0363726 0.333059 0.0260314 0.332702 0.0153336 0.333059 0.00534891 0.333059 -0.00534891 0.333059 -0.0153336 0.333059 -0.0260314 0.332702 -0.0363726 0.333059 -0.0470704 0.333059 -0.0570551 0.333059 -0.0677529 0.332702 -0.0780942 0.333059 -0.0884354 0.333059 -0.0987766 0.333059 -0.109118 0.332702 -0.119816 0.333059 -0.130157 0.333059 -0.140498 0.333059 -0.150839 0.332702 -0.161181 0 0 -5.32752 12.4309z"/>
  </g>
  <path class="fil7" d="M333.036 530.859l1.66743 0 0 11.119 4.18856 0 0 -11.119 1.66743 0 0 11.119 4.18856 0 0 -11.119 1.66708 0 0 12.607 -13.3791 0 0 -12.607zm15.9184 3.47537l1.54691 0 0 6.96536 4.29126 -6.96536 1.66743 0 0 9.13167 -1.54691 0 0 -6.9215 -4.29161 6.9215 -1.66708 0 0 -9.13167zm9.83915 12.6306l0 -12.6306 1.4089 0 0 1.18568c0.331633,-0.463573 0.707483,-0.813035 1.12719,-1.04482 0.416859,-0.231786 0.924649,-0.349462 1.52052,-0.349462 0.780585,0 1.46739,0.202546 2.06325,0.601931 0.599078,0.402238 1.04803,0.96851 1.35042,1.69953 0.305245,0.731018 0.457867,1.53229 0.457867,2.4038 0,0.933564 -0.167243,1.7762 -0.504938,2.52469 -0.334485,0.748491 -0.82195,1.32083 -1.46168,1.71985 -0.640087,0.396176 -1.31227,0.595869 -2.01654,0.595869 -0.516705,0 -0.977425,-0.108405 -1.38858,-0.325571 -0.410797,-0.217523 -0.745282,-0.49317 -1.00952,-0.825159l0 4.44423 -1.54691 0zm1.39999 -8.01339c0,1.17427 0.237848,2.04293 0.713189,2.6067 0.475697,0.560566 1.05374,0.842276 1.72913,0.842276 0.686801,0 1.27661,-0.290624 1.76692,-0.874726 0.490317,-0.581249 0.736724,-1.48236 0.736724,-2.70334 0,-1.16535 -0.240701,-2.03437 -0.719251,-2.61526 -0.478193,-0.578396 -1.05053,-0.86902 -1.71415,-0.86902 -0.660413,0 -1.24451,0.308097 -1.7523,0.924649 -0.50779,0.616552 -0.760259,1.51446 -0.760259,2.68872zm8.3953 -4.61718l1.54691 0 0 6.96536 4.29126 -6.96536 1.66743 0 0 9.13167 -1.54691 0 0 -6.9215 -4.29161 6.9215 -1.66708 0 0 -9.13167zm9.84486 0l1.54976 0 0 3.8013 4.29161 0 0 -3.8013 1.54691 0 0 9.13167 -1.54691 0 0 -4.05055 -4.29161 0 0 4.05055 -1.54976 0 0 -9.13167zm15.6777 8.00447c-0.575543,0.487464 -1.12719,0.830865 -1.65567,1.03341 -0.531326,0.199336 -1.10081,0.299183 -1.70844,0.299183 -1.00381,0 -1.77299,-0.243554 -2.31287,-0.733871 -0.537031,-0.489961 -0.807329,-1.11828 -0.807329,-1.87854 0,-0.448952 0.0998464,-0.856896 0.305245,-1.22704 0.202546,-0.369788 0.469635,-0.666118 0.798415,-0.889346 0.331633,-0.222871 0.701778,-0.393324 1.11543,-0.50779 0.302392,-0.0791639 0.760259,-0.158328 1.37396,-0.231786 1.25022,-0.14977 2.17202,-0.325927 2.76182,-0.534178 0.0060621,-0.21146 0.00891486,-0.34661 0.00891486,-0.402238 0,-0.631172 -0.14656,-1.07727 -0.440394,-1.33259 -0.393324,-0.352315 -0.98313,-0.525263 -1.76086,-0.525263 -0.728166,0 -1.2652,0.125878 -1.61466,0.381556 -0.346253,0.255322 -0.601575,0.707126 -0.768817,1.35613l-1.51196 -0.208608c0.138002,-0.645792 0.364083,-1.17106 0.678242,-1.56723 0.31416,-0.399386 0.772027,-0.707483 1.3679,-0.921796 0.595869,-0.214313 1.28552,-0.323074 2.07217,-0.323074 0.780942,0 1.41176,0.0941409 1.89922,0.276004 0.487108,0.185072 0.845485,0.414006 1.07727,0.692863 0.228934,0.278857 0.387261,0.627963 0.481402,1.05374 0.0499232,0.264236 0.0763112,0.739577 0.0763112,1.42638l0 2.06361c0,1.44135 0.0320935,2.35138 0.0998464,2.72973 0.0645436,0.381912 0.196483,0.748491 0.390114,1.09795l-1.61716 0c-0.158684,-0.319865 -0.264236,-0.695715 -0.308097,-1.12719zm-0.129444 -3.45789c-0.563419,0.232143 -1.40569,0.425774 -2.52718,0.587311 -0.636877,0.0909315 -1.08904,0.193631 -1.35007,0.308097 -0.264236,0.114467 -0.469635,0.281709 -0.610846,0.504938 -0.143708,0.220019 -0.217166,0.463573 -0.217166,0.733871 0,0.413649 0.158684,0.75705 0.469635,1.03305 0.311307,0.273151 0.769174,0.411153 1.37075,0.411153 0.595869,0 1.12719,-0.129444 1.59112,-0.390471 0.463929,-0.261384 0.807329,-0.619404 1.0245,-1.07157 0.167243,-0.349106 0.249259,-0.865811 0.249259,-1.54691l0 -0.569481z"/>
  <path class="fil7" d="M756.744 288.631l-12.607 0 0 -4.73165c0,-0.962805 0.129087,-1.73483 0.381556,-2.31572 0.255322,-0.584458 0.648645,-1.03912 1.17997,-1.3679 0.528473,-0.32878 1.08298,-0.496023 1.66423,-0.496023 0.537031,0 1.04518,0.14656 1.52052,0.440037 0.475697,0.290624 0.860105,0.733871 1.15358,1.32403 0.223228,-0.763468 0.604784,-1.34757 1.14181,-1.75837 0.54024,-0.410797 1.17712,-0.616552 1.91099,-0.616552 0.589807,0 1.13896,0.126234 1.64675,0.37585 0.50779,0.249616 0.897904,0.557713 1.17391,0.924649 0.276004,0.366936 0.481402,0.827655 0.622257,1.37966 0.140855,0.551651 0.21146,1.22989 0.21146,2.03401l0 4.80796zm-7.30876 -1.66993l0 -2.72688c0,-0.73708 -0.0499232,-1.26805 -0.146917,-1.59112 -0.126234,-0.422564 -0.334485,-0.742429 -0.628319,-0.956743 -0.293477,-0.214313 -0.660413,-0.323074 -1.10045,-0.323074 -0.416859,0 -0.786647,0.0998464 -1.10366,0.299539 -0.320222,0.202546 -0.537388,0.489961 -0.654707,0.860105 -0.11732,0.372641 -0.176158,1.01237 -0.176158,1.91955l0 2.51863 3.81021 0zm5.82069 0l0 -3.13803c0,-0.539884 -0.0206825,-0.918587 -0.0588381,-1.13575 -0.0706057,-0.384765 -0.185072,-0.70463 -0.346253,-0.962805 -0.158684,-0.258531 -0.393324,-0.469635 -0.698568,-0.637234 -0.308454,-0.16439 -0.660769,-0.249259 -1.06265,-0.249259 -0.469635,0 -0.877579,0.120172 -1.22704,0.360873 -0.346253,0.240701 -0.590164,0.575543 -0.731018,1.00381 -0.138002,0.425774 -0.208251,1.04233 -0.208251,1.84359l0 2.9148 4.33262 0zm-7.6436 -9.95076l0 -1.54691 6.96536 0 -6.96536 -4.29126 0 -1.66743 9.13167 0 0 1.54691 -6.9215 0 6.9215 4.29161 0 1.66708 -9.13167 0zm5.78539 -15.7978l0.199693 -1.52052c1.04767,0.16439 1.86962,0.590164 2.46264,1.27696 0.593016,0.683948 0.889346,1.52658 0.889346,2.52433 0,1.24772 -0.407944,2.25439 -1.22383,3.0118 -0.816244,0.760259 -1.9873,1.14181 -3.51352,1.14181 -0.98634,0 -1.8493,-0.16439 -2.58923,-0.490317 -0.739577,-0.32878 -1.29444,-0.824803 -1.66423,-1.49413 -0.369788,-0.666118 -0.554861,-1.39428 -0.554861,-2.17772 0,-0.992402 0.252469,-1.80544 0.754554,-2.4334 0.501728,-0.631172 1.21206,-1.03626 2.13671,-1.21527l0.232143 1.5059c-0.613699,0.143708 -1.07442,0.396176 -1.38573,0.760259 -0.308097,0.363726 -0.463573,0.80412 -0.463573,1.32083 0,0.780585 0.278857,1.41461 0.839423,1.90207 0.557713,0.487108 1.44135,0.730662 2.65057,0.730662 1.22704,0 2.11924,-0.234639 2.67695,-0.707126 0.554861,-0.469635 0.833717,-1.08333 0.833717,-1.84074 0,-0.607637 -0.187925,-1.11222 -0.560566,-1.52052 -0.372998,-0.407944 -0.945331,-0.666118 -1.72021,-0.774879zm-1.22098 -2.46585c-1.69097,0 -2.94404,-0.469635 -3.75743,-1.41176 -0.675033,-0.783794 -1.01558,-1.74089 -1.01558,-2.87094 0,-1.25628 0.411153,-2.28363 1.23596,-3.07919 0.82195,-0.798415 1.9577,-1.19459 3.40797,-1.19459 1.17676,0 2.10141,0.176158 2.77359,0.528473 0.67539,0.352315 1.1978,0.865811 1.57044,1.53799 0.372998,0.675033 0.557713,1.4089 0.557713,2.20732 0,1.27696 -0.407944,2.31002 -1.22989,3.09987 -0.818741,0.7895 -1.99871,1.18282 -3.54276,1.18282zm0 -1.59112c1.17106,0 2.04578,-0.255322 2.62703,-0.765965 0.584101,-0.510643 0.874726,-1.15358 0.874726,-1.92561 0,-0.768817 -0.293477,-1.4089 -0.877579,-1.91955 -0.584101,-0.50779 -1.47666,-0.763112 -2.6741,-0.763112 -1.13005,0 -1.9873,0.255322 -2.56855,0.768817 -0.581249,0.513852 -0.871516,1.15073 -0.871516,1.91384 0,0.772027 0.290268,1.41497 0.868664,1.92561 0.578396,0.510643 1.45312,0.765965 2.62132,0.765965zm-4.56441 -7.55837l0 -7.42322 1.27982 0 0 2.94119 7.85185 0 0 1.54084 -7.85185 0 0 2.94119 -1.27982 0zm8.00447 -14.6646c0.487464,0.575543 0.830865,1.12719 1.03341,1.65567 0.199336,0.531326 0.299183,1.10081 0.299183,1.70844 0,1.00381 -0.243554,1.77299 -0.733871,2.31287 -0.489961,0.537031 -1.11828,0.807329 -1.87854,0.807329 -0.448952,0 -0.856896,-0.0998464 -1.22704,-0.305245 -0.369788,-0.202546 -0.666118,-0.469635 -0.889346,-0.798415 -0.222871,-0.331633 -0.393324,-0.701778 -0.50779,-1.11543 -0.0791639,-0.302392 -0.158328,-0.760259 -0.231786,-1.37396 -0.14977,-1.25022 -0.325927,-2.17202 -0.534178,-2.76182 -0.21146,-0.0060621 -0.34661,-0.00891486 -0.402238,-0.00891486 -0.631172,0 -1.07727,0.14656 -1.33259,0.440394 -0.352315,0.393324 -0.525263,0.98313 -0.525263,1.76086 0,0.728166 0.125878,1.2652 0.381556,1.61466 0.255322,0.346253 0.707126,0.601575 1.35613,0.768817l-0.208608 1.51196c-0.645792,-0.138002 -1.17106,-0.364083 -1.56723,-0.678242 -0.399386,-0.31416 -0.707483,-0.772027 -0.921796,-1.3679 -0.214313,-0.595869 -0.323074,-1.28552 -0.323074,-2.07217 0,-0.780942 0.0941409,-1.41176 0.276004,-1.89922 0.185072,-0.487108 0.414006,-0.845485 0.692863,-1.07727 0.278857,-0.228934 0.627963,-0.387261 1.05374,-0.481402 0.264236,-0.0499232 0.739577,-0.0763112 1.42638,-0.0763112l2.06361 0c1.44135,0 2.35138,-0.0320935 2.72973,-0.0998464 0.381912,-0.0645436 0.748491,-0.196483 1.09795,-0.390114l0 1.61716c-0.319865,0.158684 -0.695715,0.264236 -1.12719,0.308097zm-3.45789 0.129444c0.232143,0.563419 0.425774,1.40569 0.587311,2.52718 0.0909315,0.636877 0.193631,1.08904 0.308097,1.35007 0.114467,0.264236 0.281709,0.469635 0.504938,0.610846 0.220019,0.143708 0.463573,0.217166 0.733871,0.217166 0.413649,0 0.75705,-0.158684 1.03305,-0.469635 0.273151,-0.311307 0.411153,-0.769174 0.411153,-1.37075 0,-0.595869 -0.129444,-1.12719 -0.390471,-1.59112 -0.261384,-0.463929 -0.619404,-0.807329 -1.07157,-1.0245 -0.349106,-0.167243 -0.865811,-0.249259 -1.54691,-0.249259l-0.569481 0z"/>
  <polyline class="fil1 str4" points="718.785,507.492 600.602,369.809 507.374,261.199 718.785,13.9293 "/>
  <polyline class="fil1 str4" points="30.9463,492.376 129.54,30.0331 204.855,383.211 228.134,492.376 "/>
  <line class="fil1 str4" x1="242.293" y1="507.497" x2="228.134" y2= "492.376" />
  <line class="fil1 str4" x1="507.374" y1="492.37" x2="493.234" y2= "507.492" />
  <line class="fil1 str4" x1="228.134" y1="30.0331" x2="242.293" y2= "13.9346" />
  <line class="fil1 str4" x1="507.374" y1="30.0267" x2="493.234" y2= "13.9293" />
  <polyline class="fil1 str4" points="16.7421,507.497 228.134,261.205 16.7421,13.9346 "/>
  <line class="fil1 str4" x1="2.60385" y1="518.766" x2="16.7421" y2= "502.901" />
  <line class="fil1 str4" x1="2.60385" y1="1.64782" x2="16.7421" y2= "18.2972" />
  <line class="fil1 str4" x1="733.863" y1="1.64782" x2="718.785" y2= "19.6537" />
  <line class="fil1 str4" x1="733.863" y1="518.766" x2="718.785" y2= "502.901" />
 </g>
</svg>
