<?xml version="1.0" encoding="UTF-8"?>
<!DOCTYPE svg PUBLIC "-//W3C//DTD SVG 1.1//EN" "http://www.w3.org/Graphics/SVG/1.1/DTD/svg11.dtd">
<!-- Creator: CorelDRAW -->
<svg xmlns="http://www.w3.org/2000/svg" xml:space="preserve" width="288px" height="770px" style="shape-rendering:geometricPrecision; text-rendering:geometricPrecision; image-rendering:optimizeQuality; fill-rule:evenodd; clip-rule:evenodd"
viewBox="0 0 288 761.806"
 xmlns:xlink="http://www.w3.org/1999/xlink">
 <defs>
  <style type="text/css">
   <![CDATA[
    .str2 {stroke:#1F1A17;stroke-width:0.267561}
    .str1 {stroke:#1F1A17;stroke-width:1.75565}
    .str0 {stroke:black;stroke-width:1.75565}
    .str3 {stroke:white;stroke-width:1.75565;stroke-dasharray:1.755652 5.266957}
    .fil0 {fill:none}
    .fil2 {fill:black}
    .fil4 {fill:#BF815E}
    .fil5 {fill:#C78057}
    .fil6 {fill:#F8C300}
    .fil7 {fill:#1F1A17;fill-rule:nonzero}
    .fil3 {fill:black;fill-rule:nonzero}
    .fil1 {fill:url(#id0)}
   ]]>
  </style>
  <radialGradient id="id0" gradientUnits="userSpaceOnUse" cx="162.361" cy="65.0445" r="5.22342" fx="162.361" fy="65.0445">
   <stop offset="0" style="stop-color:#F1FBFF"/>
   <stop offset="0.321569" style="stop-color:#5BC5E0"/>
   <stop offset="1" style="stop-color:#1DAFD3"/>
  </radialGradient>
 </defs>
 <g id="Слой_x0020_1">
  <metadata id="CorelCorpID_0Corel-Layer"/>
  <rect class="fil0 str0" x="1.52672" y="0.16821" width="237.714" height="729.276"/>
  <rect class="fil0 str0" x="14.5057" y="14.0807" width="211.298" height="702.345"/>
  <rect class="fil1 str0" x="32.2242" y="31.7187" width="175.864" height="667.093"/>
  <line class="fil0 str0" x1="32.2243" y1="509.088" x2="208.088" y2= "509.088" />
  <line class="fil0 str1" x1="208.088" y1="491.45" x2="32.2243" y2= "491.45" />
  <rect class="fil0 str0" x="214.935" y="363.406" width="6.9652" height="22.6693"/>
  <rect class="fil0 str0" x="214.935" y="371.489" width="3.2844" height="36.9719"/>
  <polygon class="fil2 str2" points="214.935,408.461 218.219,408.461 218.219,386.075 214.935,386.075 "/>
  <polygon class="fil2 str2" points="214.935,386.075 218.219,386.075 218.219,371.489 214.935,371.489 "/>
  <g>
   <path class="fil3" d="M3.2606 761.673l12.2896 -5.26696 0 0 -0.159413 0.329009 -0.14923 0.32936 -0.138697 0.329009 -0.128865 0.32936 -0.118331 0.329009 -0.107797 0.32936 -0.0976143 0.329009 -0.0874315 0.32936 -0.0772487 0.329009 -0.0670659 0.32936 -0.056532 0.329009 -0.0463492 0.32936 -0.0358153 0.329009 -0.0256325 0.32936 -0.0154497 0.329009 -0.00526696 0.32936 0.00526696 0.32936 0.0154497 0.329009 0.0256325 0.32936 0.0358153 0.329009 0.0463492 0.32936 0.056532 0.329009 0.0670659 0.32936 0.0772487 0.329009 0.0874315 0.32936 0.0976143 0.329009 0.107797 0.32936 0.118331 0.329009 0.128865 0.32936 0.138697 0.329009 0.14923 0.32936 0.159413 0.329009 -12.2896 -5.26696zm231.547 0.877826l-225.37 0 0 -1.75565 225.37 0 0 1.75565zm6.17638 -0.877826l-12.2896 5.26696 0.159413 -0.329009 0.14923 -0.32936 0.138697 -0.329009 0.128865 -0.32936 0.118331 -0.329009 0.107797 -0.32936 0.0976143 -0.329009 0.0874315 -0.32936 0.0772487 -0.329009 0.0670659 -0.32936 0.056532 -0.329009 0.0463492 -0.32936 0.0358153 -0.329009 0.0256325 -0.32936 0.0154497 -0.329009 0.00526696 -0.32936 -0.00526696 -0.32936 -0.0154497 -0.329009 -0.0256325 -0.32936 -0.0358153 -0.329009 -0.0463492 -0.32936 -0.056532 -0.329009 -0.0670659 -0.32936 -0.0772487 -0.329009 -0.0874315 -0.32936 -0.0976143 -0.329009 -0.107797 -0.32936 -0.118331 -0.329009 -0.128865 -0.32936 -0.138697 -0.329009 -0.14923 -0.32936 -0.159413 -0.329009 0 0 12.2896 5.26696z"/>
  </g>
  <path class="fil4 str2" d="M225.804 14.0807l0 702.346 -211.298 0 0 -702.346 211.298 0zm-224.277 715.364l237.714 0 0 -729.276 -237.714 0 0 729.276z"/>
  <path class="fil5 str1" d="M32.2243 491.45l0 -459.732 175.864 0 0 459.732 0 17.638 0 189.723 -175.864 0 0 -189.723 0 -17.638zm193.58 224.976l0 -702.346 -211.298 0 0 702.346 211.298 0zm-10.8692 -307.965l0 -22.3867 0 -14.5853 0 -8.08408 6.96537 0 0 22.6693 -3.6809 0 0 22.3867 -3.28447 0z"/>
  <polygon class="fil5 str2" points="208.088,491.45 32.2243,491.45 32.2243,509.088 208.088,509.088 "/>
  <polyline class="fil0 str3" points="32.2243,698.811 120.156,31.7187 208.088,698.811 "/>
  <polyline class="fil0 str3" points="32.2243,698.811 208.088,365.25 32.2243,31.7187 "/>
  <line class="fil0 str3" x1="208.088" y1="31.7187" x2="225.804" y2= "14.0807" />
  <line class="fil0 str3" x1="32.2243" y1="31.7187" x2="14.5055" y2= "14.0807" />
  <line class="fil0 str3" x1="225.804" y1="716.426" x2="208.088" y2= "698.811" />
  <line class="fil0 str3" x1="14.5055" y1="716.426" x2="32.2243" y2= "698.811" />
  <line class="fil0 str3" x1="1.52672" y1="0.168191" x2="14.5055" y2= "16.5814" />
  <line class="fil0 str3" x1="239.241" y1="0.168191" x2="225.804" y2= "16.4684" />
  <line class="fil0 str3" x1="239.241" y1="729.444" x2="223.429" y2= "716.426" />
  <line class="fil0 str3" x1="1.52672" y1="729.444" x2="17.5309" y2= "716.426" />
  <polygon class="fil6 str2" points="214.935,363.405 214.935,371.489 218.219,371.489 218.219,386.075 221.9,386.075 221.9,363.405 "/>
  <g>
   <path class="fil7" d="M275.591 0.170298l5.24589 12.2404 0 0 -0.327956 -0.158711 -0.327956 -0.148528 -0.327956 -0.138345 -0.327605 -0.128163 -0.327956 -0.117629 -0.327956 -0.107797 -0.327956 -0.0972631 -0.327605 -0.0870804 -0.327956 -0.0768976 -0.327956 -0.0667148 -0.327956 -0.0561809 -0.327605 -0.0463492 -0.327956 -0.0358153 -0.327956 -0.0256325 -0.327956 -0.0150986 -0.327605 -0.00526696 -0.327956 0.00526696 -0.327956 0.0150986 -0.327956 0.0256325 -0.327605 0.0358153 -0.327956 0.0463492 -0.327956 0.0561809 -0.327956 0.0667148 -0.327605 0.0768976 -0.327956 0.0870804 -0.327956 0.0972631 -0.327956 0.107446 -0.327605 0.11798 -0.327956 0.128163 -0.327956 0.137994 -0.327956 0.148879 -0.327605 0.158711 5.24589 -12.2404zm-0.883795 723.139l0.00948052 -716.987 1.74863 0 -0.00948052 716.987 -1.74863 0zm0.874315 6.15145l-5.24589 -12.2404 0.327956 0.158711 0.327956 0.148528 0.327956 0.138345 0.327605 0.128163 0.327956 0.117629 0.327956 0.107797 0.327956 0.0972631 0.327605 0.0870804 0.327956 0.0768976 0.327956 0.0667148 0.327956 0.0561809 0.327605 0.0463492 0.327956 0.0358153 0.327956 0.0256325 0.327956 0.0150986 0.327605 0.00526696 0.327956 -0.00526696 0.327956 -0.0150986 0.327956 -0.0256325 0.327605 -0.0358153 0.327956 -0.0463492 0.327956 -0.0561809 0.327956 -0.0667148 0.327605 -0.0768976 0.327956 -0.0870804 0.327956 -0.0972631 0.327956 -0.107446 0.327605 -0.11798 0.327956 -0.128163 0.327956 -0.137994 0.327956 -0.148879 0.327605 -0.158711 0 0 -5.24589 12.2404z"/>
  </g>
  <path class="fil7" d="M87.5154 742.649l1.64434 0 0 10.9486 4.1314 0 0 -10.9486 1.6447 0 0 10.9486 4.1314 0 0 -10.9486 1.64434 0 0 12.4139 -13.1962 0 0 -12.4139zm15.7008 3.42212l1.52566 0 0 6.85863 4.23288 -6.85863 1.6447 0 0 8.99175 -1.52601 0 0 -6.81544 -4.23288 6.81544 -1.64434 0 0 -8.99175zm9.70489 12.437l0 -12.437 1.38942 0 0 1.16751c0.327254,-0.45647 0.698047,-0.800577 1.11203,-1.02881 0.411174,-0.228235 0.911886,-0.344108 1.49968,-0.344108 0.770029,0 1.44736,0.199442 2.03515,0.592708 0.590953,0.396075 1.03373,0.95367 1.33184,1.67349 0.30127,0.719817 0.451554,1.50881 0.451554,2.36697 0,0.91926 -0.16468,1.74898 -0.497903,2.486 -0.330063,0.737023 -0.81076,1.30059 -1.44174,1.6935 -0.631333,0.390106 -1.29427,0.586739 -1.98915,0.586739 -0.50949,0 -0.963853,-0.106744 -1.36941,-0.320582 -0.405205,-0.21419 -0.735267,-0.485613 -0.995806,-0.812516l0 4.37614 -1.52566 0zm1.38064 -7.8906c0,1.15627 0.234555,2.01163 0.703665,2.56676 0.46911,0.551977 1.03935,0.82937 1.70544,0.82937 0.677331,0 1.25915,-0.286171 1.74266,-0.861323 0.483858,-0.572343 0.72684,-1.45965 0.72684,-2.66192 0,-1.14749 -0.237364,-2.0032 -0.709635,-2.57519 -0.471568,-0.569534 -1.03619,-0.855705 -1.69069,-0.855705 -0.651347,0 -1.22755,0.303377 -1.72826,0.910481 -0.500712,0.607105 -0.750015,1.49125 -0.750015,2.64752zm8.28071 -4.54644l1.52601 0 0 6.85863 4.23253 -6.85863 1.6447 0 0 8.99175 -1.52601 0 0 -6.81544 -4.23288 6.81544 -1.64434 0 0 -8.99175zm9.71051 0l1.52847 0 0 3.74305 4.23323 0 0 -3.74305 1.52566 0 0 8.99175 -1.52566 0 0 -3.98849 -4.23323 0 0 3.98849 -1.52847 0 0 -8.99175zm15.4634 7.88183c-0.567427,0.479995 -1.11168,0.818134 -1.63311,1.01758 -0.523887,0.196282 -1.0857,0.294598 -1.68508,0.294598 -0.989837,0 -1.74863,-0.239822 -2.28129,-0.722626 -0.529505,-0.482453 -0.796364,-1.10115 -0.796364,-1.84976 0,-0.442073 0.0986677,-0.843766 0.30127,-1.20824 0.199793,-0.364122 0.463141,-0.655912 0.787586,-0.875719 0.326902,-0.219457 0.692078,-0.387297 1.10009,-0.50001 0.29811,-0.077951 0.750015,-0.155902 1.35536,-0.228235 1.23282,-0.147475 2.14225,-0.320933 2.72407,-0.525993 0.00596922,-0.20822 0.00877826,-0.341299 0.00877826,-0.396075 0,-0.621501 -0.144666,-1.06077 -0.434348,-1.31217 -0.387999,-0.346917 -0.969822,-0.517215 -1.73704,-0.517215 -0.718062,0 -1.24792,0.123949 -1.59238,0.37571 -0.34165,0.251409 -0.59341,0.696292 -0.758442,1.33535l-1.49125 -0.205411c0.135887,-0.635897 0.358855,-1.15311 0.668903,-1.54322 0.309697,-0.393266 0.761602,-0.696643 1.34904,-0.907672 0.587792,-0.211029 1.26828,-0.318124 2.04393,-0.318124 0.77038,0 1.39258,0.0926984 1.87328,0.271775 0.480698,0.182237 0.833935,0.407662 1.06252,0.682246 0.225777,0.274584 0.38203,0.618341 0.475079,1.03759 0.0491583,0.260188 0.0751419,0.728245 0.0751419,1.40452l0 2.03199c0,1.41927 0.0316017,2.31535 0.0986677,2.6879 0.0635546,0.376061 0.193473,0.737023 0.384488,1.08113l-1.59483 0c-0.156604,-0.314964 -0.26089,-0.685055 -0.304079,-1.10992zm-0.12746 -3.40491c-0.555839,0.228586 -1.38661,0.41925 -2.49268,0.578312 -0.628172,0.0895383 -1.07446,0.190664 -1.33184,0.303377 -0.260539,0.112713 -0.463141,0.277393 -0.60254,0.497201 -0.141506,0.216647 -0.21419,0.45647 -0.21419,0.722626 0,0.407311 0.156604,0.74545 0.463492,1.01722 0.306888,0.268966 0.758442,0.404853 1.35185,0.404853 0.587792,0 1.11168,-0.12746 1.56955,-0.384488 0.457523,-0.257379 0.796013,-0.609914 1.0102,-1.05515 0.165031,-0.343757 0.246142,-0.852545 0.246142,-1.5232l0 -0.560755z"/>
  <path class="fil7" d="M269.682 361.937l-12.4349 0 0 -4.65915c0,-0.948052 0.127109,-1.70825 0.376412,-2.28024 0.251761,-0.575503 0.63976,-1.02319 1.16365,-1.34694 0.521429,-0.323742 1.06814,-0.488422 1.64153,-0.488422 0.529856,0 1.03092,0.144315 1.49968,0.433295 0.469461,0.286171 0.848331,0.722626 1.13801,1.30375 0.220159,-0.75177 0.596571,-1.32692 1.12608,-1.73142 0.533016,-0.404502 1.16119,-0.607105 1.88487,-0.607105 0.581823,0 1.12362,0.1243 1.62433,0.370091 0.500712,0.245791 0.885551,0.549168 1.15803,0.910481 0.272126,0.361313 0.474728,0.814974 0.613776,1.35852 0.138697,0.543199 0.208571,1.21105 0.208571,2.00285l0 4.73429zm-7.20906 -1.64434l0 -2.68509c0,-0.725787 -0.0491583,-1.24862 -0.145017,-1.56674 -0.1243,-0.41609 -0.329711,-0.731054 -0.619745,-0.942083 -0.289331,-0.211029 -0.651347,-0.318124 -1.08534,-0.318124 -0.411174,0 -0.775998,0.0983165 -1.0885,0.29495 -0.316017,0.199442 -0.530207,0.482453 -0.645729,0.846927 -0.115873,0.366931 -0.17381,0.996859 -0.17381,1.89014l0 2.48003 3.75815 0zm5.74133 0l0 -3.08995c0,-0.531611 -0.0207167,-0.904512 -0.0582877,-1.11835 -0.0695238,-0.37887 -0.182588,-0.693834 -0.341299,-0.948052 -0.156604,-0.25457 -0.387999,-0.462439 -0.689269,-0.62747 -0.304079,-0.161871 -0.651698,-0.24544 -1.04812,-0.24544 -0.463141,0 -0.865537,0.118331 -1.21035,0.355344 -0.341299,0.237013 -0.581823,0.566725 -0.720871,0.988432 -0.136239,0.41925 -0.205411,1.02635 -0.205411,1.81534l0 2.87014 4.27361 0zm-7.53947 -9.7983l0 -1.5232 6.87022 0 -6.87022 -4.2255 0 -1.64189 9.0072 0 0 1.5232 -6.82703 0 6.82703 4.22585 0 1.64153 -9.0072 0zm5.70657 -15.5558l0.196984 -1.49722c1.03338,0.161871 1.84414,0.581121 2.42877,1.2574 0.584983,0.673468 0.877475,1.50319 0.877475,2.48565 0,1.22861 -0.402395,2.21985 -1.20719,2.96565 -0.805142,0.74861 -1.96036,1.12432 -3.46566,1.12432 -0.972982,0 -1.82412,-0.161871 -2.55377,-0.482804 -0.729649,-0.323742 -1.27671,-0.812165 -1.64153,-1.47124 -0.364825,-0.655912 -0.547412,-1.37292 -0.547412,-2.14435 0,-0.977196 0.248951,-1.77777 0.744397,-2.39611 0.494743,-0.621501 1.1956,-1.02039 2.10748,-1.19665l0.228937 1.48282c-0.605349,0.141506 -1.05971,0.390106 -1.3666,0.74861 -0.304079,0.358153 -0.457523,0.791799 -0.457523,1.30059 0,0.768625 0.275286,1.39293 0.827966,1.87293 0.550221,0.479644 1.42173,0.719466 2.61452,0.719466 1.21035,0 2.09028,-0.231044 2.6405,-0.696292 0.547061,-0.462439 0.822348,-1.06673 0.822348,-1.81254 0,-0.598326 -0.185397,-1.09518 -0.55303,-1.49722 -0.367985,-0.401693 -0.932602,-0.655912 -1.69666,-0.763006zm-1.20438 -2.42807c-1.66787,0 -2.90385,-0.462439 -3.70618,-1.39013 -0.665743,-0.771785 -1.00178,-1.71422 -1.00178,-2.82695 0,-1.23703 0.405556,-2.24864 1.21912,-3.03201 0.81076,-0.786181 1.93087,-1.17629 3.36137,-1.17629 1.16084,0 2.07272,0.173458 2.73566,0.520375 0.666446,0.346917 1.18155,0.852545 1.54919,1.51443 0.367985,0.66469 0.550221,1.38732 0.550221,2.1735 0,1.2574 -0.402395,2.27462 -1.21316,3.05238 -0.8076,0.777403 -1.9716,1.1647 -3.49445,1.1647zm0 -1.56674c1.15487,0 2.01795,-0.251409 2.59099,-0.754228 0.576205,-0.502819 0.863079,-1.13591 0.863079,-1.8961 0,-0.757037 -0.289683,-1.38732 -0.865888,-1.89014 -0.575854,-0.50001 -1.45649,-0.751419 -2.63734,-0.751419 -1.11484,0 -1.96036,0.251409 -2.53376,0.757037 -0.573045,0.505979 -0.859567,1.1331 -0.859567,1.88452 0,0.760197 0.286522,1.39329 0.856758,1.8961 0.570587,0.502819 1.43331,0.754228 2.58572,0.754228zm-4.50219 -7.44256l0 -7.30948 1.26231 0 0 2.89612 7.74488 0 0 1.51723 -7.74488 0 0 2.89612 -1.26231 0zm7.89517 -14.4399c0.481049,0.566725 0.819538,1.10992 1.01933,1.6303 0.196633,0.523184 0.295301,1.08394 0.295301,1.68227 0,0.988432 -0.240524,1.74582 -0.724031,2.27743 -0.483155,0.528802 -1.1029,0.794959 -1.85292,0.794959 -0.442775,0 -0.845171,-0.0983165 -1.21035,-0.300568 -0.364473,-0.199442 -0.656965,-0.462439 -0.877124,-0.786181 -0.219808,-0.326551 -0.387999,-0.691025 -0.500712,-1.09834 -0.0783021,-0.297759 -0.156253,-0.74861 -0.228586,-1.35291 -0.147826,-1.23106 -0.321635,-2.13874 -0.527047,-2.71951 -0.208571,-0.00596922 -0.342001,-0.00877826 -0.396777,-0.00877826 -0.622554,0 -1.06252,0.144315 -1.31428,0.433646 -0.347619,0.387297 -0.518269,0.968067 -0.518269,1.73388 0,0.717008 0.1243,1.24581 0.376412,1.58992 0.251761,0.340948 0.697696,0.592357 1.33781,0.757037l-0.205762 1.48879c-0.636951,-0.135887 -1.15522,-0.358504 -1.54603,-0.66785 -0.393968,-0.309346 -0.697696,-0.760197 -0.909077,-1.34694 -0.211381,-0.586739 -0.318826,-1.26583 -0.318826,-2.04042 0,-0.768976 0.0930496,-1.39013 0.272477,-1.87012 0.182237,-0.479644 0.408365,-0.83253 0.6833,-1.06077 0.274935,-0.225426 0.619394,-0.381328 1.03935,-0.474026 0.260539,-0.0491583 0.729298,-0.0751419 1.40698,-0.0751419l2.03515 0c1.42173,0 2.31957,-0.0316017 2.69247,-0.0983165 0.376763,-0.0635546 0.738427,-0.193473 1.08324,-0.384137l0 1.59238c-0.315666,0.156253 -0.68646,0.260188 -1.11203,0.303377zm-3.41053 0.12746c0.228937,0.554786 0.419952,1.38416 0.579365,2.48846 0.0895383,0.627119 0.191015,1.07235 0.303728,1.32938 0.113064,0.260188 0.277744,0.462439 0.497903,0.601486 0.21735,0.141506 0.457523,0.213838 0.724031,0.213838 0.408014,0 0.746854,-0.156253 1.01898,-0.462439 0.269317,-0.306537 0.405556,-0.757388 0.405556,-1.34975 0,-0.586739 -0.127811,-1.10992 -0.38519,-1.56674 -0.25773,-0.456821 -0.610967,-0.794959 -1.0569,-1.0088 -0.344459,-0.16468 -0.853949,-0.24544 -1.52566,-0.24544l-0.561809 0z"/>
 </g>
</svg>
